<svg width="1174" height="452" viewBox="0 0 1174 452" fill="none" xmlns="http://www.w3.org/2000/svg">
<path d="M1081.88 142H1105.68L1174 310H1140.72L1123.31 266.579H1065.35L1047.28 310H1014L1081.88 142ZM1111.19 236.798L1093.78 185.876L1076.37 236.798H1111.19Z" fill="#002D47"/>
<path d="M898 142H938.322C949.339 142 958.006 142.682 964.322 144.046C970.785 145.258 976.441 147.456 981.288 150.639C987.898 155.034 992.966 160.945 996.492 168.371C1000.16 175.797 1002 184.284 1002 193.832C1002 203.835 999.943 212.928 995.83 221.112C991.864 229.145 986.356 235.207 979.305 239.299C977.102 240.512 974.751 241.572 972.254 242.482C969.757 243.391 966.893 244.149 963.661 244.755C960.429 245.21 956.684 245.589 952.424 245.892C948.311 246.043 943.463 246.119 937.881 246.119H928.186V310H898V142ZM937 216.338C940.819 216.338 944.712 216.187 948.678 215.884C952.791 215.581 956.537 214.747 959.915 213.383C963.294 211.867 966.085 209.67 968.288 206.79C970.491 203.759 971.593 199.667 971.593 194.514C971.593 189.21 970.345 184.663 967.847 180.874C965.35 177.085 961.898 174.585 957.492 173.372C954.994 172.766 952.35 172.387 949.559 172.235C946.768 171.932 943.023 171.781 938.322 171.781H928.186V216.338H937Z" fill="#002D47"/>
<path d="M699.925 226.11C699.925 214.251 702.133 203.197 706.548 192.949C710.964 182.701 716.998 173.843 724.652 166.376C732.453 158.763 741.578 152.834 752.029 148.588C762.626 144.196 774.033 142 786.249 142C797.877 142 808.769 144.196 818.925 148.588C829.081 152.98 837.912 158.983 845.418 166.596C853.072 174.209 859.033 183.14 863.301 193.388C867.717 203.49 869.925 214.324 869.925 225.89C869.925 237.749 867.717 248.803 863.301 259.051C859.033 269.299 853.146 278.23 845.639 285.843C838.133 293.31 829.228 299.239 818.925 303.631C808.769 307.877 797.73 310 785.808 310C773.886 310 762.7 307.877 752.249 303.631C741.799 299.239 732.674 293.31 724.873 285.843C717.219 278.23 711.111 269.299 706.548 259.051C702.133 248.803 699.925 237.822 699.925 226.11ZM730.392 225.89C730.392 233.65 731.791 240.897 734.587 247.631C737.531 254.366 741.431 260.222 746.288 265.2C751.293 270.031 757.18 273.911 763.951 276.839C770.721 279.621 777.933 281.012 785.587 281.012C793.388 281.012 800.527 279.621 807.003 276.839C813.626 274.058 819.293 270.251 824.003 265.42C828.86 260.588 832.613 254.878 835.262 248.29C838.059 241.556 839.457 234.235 839.457 226.329C839.457 218.424 838.059 211.103 835.262 204.369C832.466 197.488 828.639 191.631 823.782 186.8C818.925 181.822 813.111 177.942 806.34 175.161C799.57 172.379 792.211 170.988 784.262 170.988C776.756 170.988 769.691 172.452 763.068 175.38C756.591 178.162 750.925 182.042 746.068 187.02C741.211 191.997 737.384 197.854 734.587 204.588C731.791 211.176 730.392 218.277 730.392 225.89Z" fill="#002D47"/>
<path d="M544.179 224.522L490 142H525.754L572.475 219.066V142H602.525V219.066L649.246 142H685L630.821 224.522L685 310H649.246L602.525 231.57V310H572.475V231.57L525.754 310H490L544.179 224.522Z" fill="#002D47"/>
<path d="M336 142H365.893V258.395L436.448 142H467V310H437.107V193.605L366.552 310H336V142Z" fill="#002D47"/>
<path d="M167.264 65.1679L71.6846 0V372H167.264L167.264 65.1679Z" fill="#95ADCF"/>
<path d="M215.054 165.092L119.474 99.9241L119.476 372H215.055L215.054 165.092Z" fill="#4C6093"/>
<path d="M23.895 139.025L119.475 73.8569L119.475 372H23.895L23.895 139.025Z" fill="#526590"/>
<path d="M23.8948 191.159L119.474 125.991L119.474 372H23.8949L23.8948 191.159Z" fill="#3B4A71"/>
<path d="M0 233.518L71.6847 184.642V372H1.67632e-05L0 233.518Z" fill="#293251"/>
<path d="M178.125 185.186L188.987 191.122V372H178.125V185.186Z" fill="white"/>
<path d="M145.542 161.291L156.403 167.226V372H145.542V161.291Z" fill="white"/>
<path d="M119.474 150.429L215.054 215.597L215.054 183.556L119.474 146.628L119.474 150.429Z" fill="#4C6093"/>
<path d="M0.000198877 264.078L45.6151 232.975L45.6151 243.836L1.73528e-05 274.939L0.000198877 264.078Z" fill="white"/>
<path d="M0.000198877 297.748L45.6151 266.645L45.6151 277.507L1.73528e-05 308.61L0.000198877 297.748Z" fill="white"/>
<path d="M0.000198877 331.418L45.6151 300.315L45.6151 311.177L1.73528e-05 342.28L0.000198877 331.418Z" fill="white"/>
</svg>
