<svg width="48" height="48" viewBox="0 0 48 48" fill="none" xmlns="http://www.w3.org/2000/svg">
<path d="M44 16.3238V16.4698C44 18.1898 44 19.0518 43.586 19.7558C43.172 20.4598 42.418 20.8778 40.914 21.7158L39.328 22.5958C40.42 18.8998 40.786 14.9278 40.92 11.5318L40.94 11.0898L40.944 10.9858C42.246 11.4378 42.978 11.7758 43.434 12.4078C44 13.1938 44 14.2378 44 16.3238ZM4 16.3238V16.4698C4 18.1898 4 19.0518 4.414 19.7558C4.828 20.4598 5.582 20.8778 7.086 21.7158L8.674 22.5958C7.58 18.8998 7.214 14.9278 7.08 11.5318L7.06 11.0898L7.058 10.9858C5.754 11.4378 5.022 11.7758 4.566 12.4078C4 13.1938 4 14.2398 4 16.3238Z" fill="#4C6093"/>
<path fill-rule="evenodd" clip-rule="evenodd" d="M23.9999 3.99996C27.5679 3.99996 30.5059 4.31396 32.7539 4.69396C35.0319 5.07796 36.1699 5.26996 37.1219 6.44196C38.0739 7.61396 38.0219 8.87996 37.9219 11.412C37.5779 20.11 35.7019 30.972 25.4999 31.932V39H28.3599C28.8221 39.0002 29.27 39.1606 29.6273 39.4537C29.9846 39.7469 30.2294 40.1548 30.3199 40.608L30.6999 42.5H35.9999C36.3978 42.5 36.7793 42.658 37.0606 42.9393C37.3419 43.2206 37.4999 43.6021 37.4999 44C37.4999 44.3978 37.3419 44.7793 37.0606 45.0606C36.7793 45.3419 36.3978 45.5 35.9999 45.5H11.9999C11.6021 45.5 11.2206 45.3419 10.9393 45.0606C10.658 44.7793 10.4999 44.3978 10.4999 44C10.4999 43.6021 10.658 43.2206 10.9393 42.9393C11.2206 42.658 11.6021 42.5 11.9999 42.5H17.2999L17.6799 40.608C17.7705 40.1548 18.0153 39.7469 18.3726 39.4537C18.7299 39.1606 19.1778 39.0002 19.6399 39H22.4999V31.932C12.2999 30.972 10.4239 20.108 10.0799 11.412C9.97794 8.87996 9.92795 7.61196 10.8799 6.44196C11.8299 5.26996 12.9679 5.07796 15.2459 4.69396C18.1396 4.21996 21.0677 3.98782 23.9999 3.99996ZM25.9039 12.398L25.7079 12.046C24.9479 10.68 24.5679 9.99997 23.9999 9.99997C23.4319 9.99997 23.0519 10.68 22.2919 12.046L22.0959 12.398C21.8799 12.786 21.7719 12.978 21.6039 13.106C21.4339 13.234 21.2239 13.282 20.8039 13.376L20.4239 13.464C18.9479 13.798 18.2099 13.964 18.0339 14.528C17.8579 15.092 18.3619 15.682 19.3679 16.858L19.6279 17.162C19.9139 17.496 20.0579 17.662 20.1219 17.87C20.1859 18.078 20.1639 18.3 20.1219 18.746L20.0819 19.152C19.9299 20.722 19.8539 21.508 20.3119 21.856C20.7719 22.204 21.4639 21.886 22.8459 21.25L23.2019 21.086C23.5959 20.906 23.7919 20.816 23.9999 20.816C24.2079 20.816 24.4039 20.906 24.7979 21.086L25.1539 21.25C26.5359 21.888 27.2279 22.204 27.6879 21.856C28.1479 21.508 28.0699 20.722 27.9179 19.152L27.8779 18.746C27.8359 18.3 27.8139 18.078 27.8779 17.87C27.9419 17.662 28.0859 17.496 28.3719 17.162L28.6319 16.858C29.6379 15.682 30.1419 15.094 29.9659 14.528C29.7899 13.964 29.0519 13.798 27.5759 13.464L27.1959 13.376C26.7759 13.282 26.5659 13.236 26.3959 13.106C26.2279 12.978 26.1199 12.786 25.9039 12.398Z" fill="#4C6093"/>
</svg>
