<svg width="48" height="48" viewBox="0 0 48 48" fill="none" xmlns="http://www.w3.org/2000/svg">
<path fill-rule="evenodd" clip-rule="evenodd" d="M34.376 2.15493C36.9404 1.63857 39.5569 1.42711 42.171 1.52493C42.7748 1.5484 43.3476 1.79878 43.7749 2.22607C44.2022 2.65336 44.4525 3.22611 44.476 3.82993C44.536 5.24593 44.543 8.22893 43.846 11.6249C43.436 13.6279 41.027 14.1709 39.699 12.8419L37.782 10.9259C37.0354 11.6013 36.2977 12.2864 35.569 12.9809C33.678 14.7819 31.306 17.1629 29.305 19.5399C27.603 21.5619 24.338 21.5479 22.74 19.3099C21.7295 17.891 20.6798 16.5005 19.592 15.1399C17.358 16.6689 12.72 20.1879 7.506 26.1499C7.182 26.5199 6.85667 26.8993 6.53 27.2879C6.18827 27.6937 5.69934 27.9471 5.17077 27.9924C4.6422 28.0377 4.11728 27.8712 3.7115 27.5294C3.30572 27.1877 3.05231 26.6988 3.00702 26.1702C2.96173 25.6416 3.12827 25.1167 3.47 24.7109C3.814 24.3043 4.15533 23.9066 4.494 23.5179C10.084 17.1259 15.081 13.3659 17.487 11.7339C19.17 10.5929 21.378 10.9859 22.613 12.5139C23.7828 13.9714 24.9103 15.4623 25.994 16.9849C26.0013 16.9941 26.0101 17.0018 26.02 17.0079C26.0431 17.0178 26.0679 17.0232 26.093 17.0239C26.1212 17.0259 26.1495 17.0215 26.1758 17.0111C26.2021 17.0007 26.2257 16.9846 26.245 16.9639C28.381 14.4269 30.871 11.9319 32.809 10.0849C33.642 9.29193 34.379 8.61193 34.95 8.09493L33.16 6.30093C31.831 4.97293 32.374 2.56493 34.377 2.15393M33.765 42.7239C33.633 40.9139 33.501 37.6849 33.501 31.9989C33.501 26.3129 33.633 23.0849 33.765 21.2729C33.911 19.2629 35.379 17.6949 37.467 17.5669C38.131 17.5269 38.964 17.4989 40.001 17.4989C41.038 17.4989 41.871 17.5269 42.535 17.5669C44.623 17.6949 46.091 19.2629 46.237 21.2729C46.369 23.0849 46.501 26.3129 46.501 31.9989C46.501 37.6849 46.369 40.9129 46.237 42.7249C46.091 44.7349 44.623 46.3029 42.535 46.4309C41.871 46.4709 41.038 46.4989 40.001 46.4989C38.964 46.4989 38.131 46.4709 37.467 46.4309C35.379 46.3029 33.911 44.7339 33.765 42.7239ZM1.67 43.2699C1.573 42.3259 1.5 40.9659 1.5 38.9999C1.5 37.0339 1.573 35.6739 1.669 34.7299C1.87 32.7399 3.467 31.5989 5.216 31.5399C6.14372 31.5112 7.07184 31.4979 8 31.4999C9.187 31.4999 10.097 31.5169 10.784 31.5399C12.533 31.5989 14.13 32.7399 14.331 34.7299C14.427 35.6739 14.5 37.0339 14.5 38.9999C14.5 40.9659 14.427 42.3259 14.332 43.2699C14.13 45.2599 12.532 46.4009 10.784 46.4599C10.097 46.4829 9.187 46.4999 8 46.4999C6.813 46.4999 5.903 46.4829 5.216 46.4599C3.467 46.4009 1.871 45.2599 1.67 43.2699ZM17.5 35.9999C17.5 39.4109 17.599 41.5639 17.713 42.9169C17.885 44.9649 19.453 46.3639 21.433 46.4509C22.097 46.4799 22.939 46.4999 24 46.4999C25.061 46.4999 25.903 46.4799 26.567 46.4499C28.547 46.3639 30.115 44.9649 30.287 42.9169C30.401 41.5639 30.5 39.4109 30.5 35.9999C30.5 32.5889 30.401 30.4359 30.288 29.0829C30.115 27.0349 28.548 25.6359 26.567 25.5489C25.903 25.5199 25.061 25.4999 24 25.4999C22.939 25.4999 22.097 25.5199 21.434 25.5499C19.453 25.6359 17.884 27.0349 17.712 29.0829C17.6 30.4359 17.5 32.5889 17.5 35.9999Z" fill="#4662AA"/>
</svg>
