<svg width="48" height="38" viewBox="0 0 48 38" fill="none" xmlns="http://www.w3.org/2000/svg">
<path d="M24.255 6.32344L16.995 12.1422C15.7875 13.107 15.555 14.8437 16.47 16.0832C17.4375 17.4043 19.32 17.6641 20.6175 16.6621L28.065 10.9324C28.59 10.5316 29.34 10.6207 29.7525 11.1402C30.165 11.6598 30.0675 12.402 29.5425 12.8102L27.975 14.0125L38.4 23.5125V9.5H38.3475L38.055 9.31445L32.61 5.86328C31.4625 5.13594 30.12 4.75 28.755 4.75C27.12 4.75 25.53 5.30664 24.255 6.32344ZM25.965 15.5563L22.0875 18.5398C19.725 20.3656 16.2975 19.8906 14.5275 17.4859C12.8625 15.2223 13.2825 12.0605 15.48 10.3016L21.72 5.30664C20.85 4.94297 19.9125 4.75742 18.96 4.75742C17.55 4.75 16.1775 5.16563 15 5.9375L9.6 9.5V26.125H11.715L18.57 32.3148C20.04 33.6434 22.3125 33.5395 23.655 32.0848C24.0675 31.632 24.345 31.1051 24.4875 30.5559L25.7625 31.7137C27.225 33.0422 29.505 32.9457 30.8475 31.4984C31.185 31.1348 31.4325 30.7117 31.59 30.2738C33.045 31.2387 35.025 31.0383 36.2475 29.7172C37.59 28.2699 37.4925 26.0137 36.03 24.6852L25.965 15.5563ZM1.2 9.5C0.54 9.5 0 10.0344 0 10.6875V26.125C0 27.4387 1.0725 28.5 2.4 28.5H4.8C6.1275 28.5 7.2 27.4387 7.2 26.125V9.5H1.2ZM3.6 23.75C3.91826 23.75 4.22348 23.8751 4.44853 24.0978C4.67357 24.3205 4.8 24.6226 4.8 24.9375C4.8 25.2524 4.67357 25.5545 4.44853 25.7772C4.22348 25.9999 3.91826 26.125 3.6 26.125C3.28174 26.125 2.97652 25.9999 2.75147 25.7772C2.52643 25.5545 2.4 25.2524 2.4 24.9375C2.4 24.6226 2.52643 24.3205 2.75147 24.0978C2.97652 23.8751 3.28174 23.75 3.6 23.75ZM40.8 9.5V26.125C40.8 27.4387 41.8725 28.5 43.2 28.5H45.6C46.9275 28.5 48 27.4387 48 26.125V10.6875C48 10.0344 47.46 9.5 46.8 9.5H40.8ZM43.2 24.9375C43.2 24.6226 43.3264 24.3205 43.5515 24.0978C43.7765 23.8751 44.0817 23.75 44.4 23.75C44.7183 23.75 45.0235 23.8751 45.2485 24.0978C45.4736 24.3205 45.6 24.6226 45.6 24.9375C45.6 25.2524 45.4736 25.5545 45.2485 25.7772C45.0235 25.9999 44.7183 26.125 44.4 26.125C44.0817 26.125 43.7765 25.9999 43.5515 25.7772C43.3264 25.5545 43.2 25.2524 43.2 24.9375Z" fill="#4660A3"/>
</svg>
