<svg width="48" height="48" viewBox="0 0 48 48" fill="none" xmlns="http://www.w3.org/2000/svg">
<path d="M26.2661 4.75811C26.5415 4.41085 26.9245 4.16493 27.3549 4.05897C27.7853 3.95301 28.2387 3.99302 28.6439 4.17272C29.049 4.35241 29.383 4.66161 29.5934 5.05175C29.8038 5.44188 29.8786 5.89085 29.8061 6.32811L27.6961 19.0001H35.3341C35.7101 19 36.0784 19.1059 36.3969 19.3057C36.7155 19.5054 36.9712 19.7909 37.1349 20.1293C37.2986 20.4678 37.3636 20.8455 37.3224 21.2192C37.2812 21.5929 37.1356 21.9474 36.9021 22.2421L21.0681 42.2421C20.7926 42.5894 20.4097 42.8353 19.9793 42.9413C19.5489 43.0472 19.0955 43.0072 18.6903 42.8275C18.2851 42.6478 17.9511 42.3386 17.7408 41.9485C17.5304 41.5583 17.4556 41.1094 17.5281 40.6721L19.6381 28.0001H12.0001C11.6243 27.9998 11.2562 27.8936 10.938 27.6938C10.6197 27.4939 10.3643 27.2084 10.2008 26.87C10.0374 26.5316 9.97254 26.154 10.0138 25.7805C10.0551 25.407 10.2007 25.0527 10.4341 24.7581L26.2661 4.75811Z" fill="#5871A9"/>
</svg>
