<svg width="48" height="48" viewBox="0 0 48 48" fill="none" xmlns="http://www.w3.org/2000/svg">
<path d="M25.9961 4V6H39.9961V10H25.9961V38H33.9961V42H13.9961V38H21.9961V10H7.99612V6H21.9961V4H25.9961ZM9.99612 12.686L15.6521 18.344C16.7709 19.4628 17.5328 20.8883 17.8414 22.4401C18.1501 23.992 17.9916 25.6005 17.3861 27.0623C16.7806 28.5241 15.7552 29.7735 14.4396 30.6525C13.1241 31.5315 11.5774 32.0007 9.99512 32.0007C8.41289 32.0007 6.86619 31.5315 5.5506 30.6525C4.23502 29.7735 3.20964 28.5241 2.60412 27.0623C1.99861 25.6005 1.84016 23.992 2.14881 22.4401C2.45746 20.8883 3.21934 19.4628 4.33812 18.344L9.99612 12.686ZM37.9961 12.686L43.6521 18.344C44.7709 19.4628 45.5328 20.8883 45.8414 22.4401C46.1501 23.992 45.9916 25.6005 45.3861 27.0623C44.7806 28.5241 43.7552 29.7735 42.4396 30.6525C41.1241 31.5315 39.5774 32.0007 37.9951 32.0007C36.4129 32.0007 34.8662 31.5315 33.5506 30.6525C32.235 29.7735 31.2096 28.5241 30.6041 27.0623C29.9986 25.6005 29.8402 23.992 30.1488 22.4401C30.4575 20.8883 31.2193 19.4628 32.3381 18.344L37.9961 12.686ZM37.9961 18.344L35.1681 21.172C34.4179 21.922 33.9963 22.9392 33.9961 24L41.9961 24.002C41.9961 22.922 41.5721 21.92 40.8241 21.172L37.9961 18.344ZM9.99612 18.344L7.16812 21.172C6.41792 21.922 5.99635 22.9392 5.99612 24L13.9961 24.002C13.9961 22.922 13.5721 21.92 12.8241 21.172L9.99612 18.344Z" fill="#4662AA"/>
</svg>
