<svg width="48" height="48" viewBox="0 0 48 48" fill="none" xmlns="http://www.w3.org/2000/svg">
<path d="M19.581 32.346L19.578 32.337L19.008 32.151C16.2971 31.1928 13.9187 29.4757 12.156 27.204C10.7307 25.3686 9.75127 23.227 9.2951 20.9483C8.83893 18.6696 8.91846 16.3161 9.5274 14.0734C10.1363 11.8307 11.258 9.76015 12.804 8.02509C14.35 6.29002 16.278 4.93789 18.4359 4.07536C20.5938 3.21283 22.9226 2.86347 25.2386 3.05487C27.5547 3.24626 29.7945 3.97315 31.7816 5.17822C33.7686 6.38329 35.4485 8.03356 36.6887 9.99887C37.9289 11.9642 38.6955 14.1908 38.928 16.503C39.009 17.328 38.328 18 37.5 18C36.672 18 36.009 17.325 35.91 16.503C35.6423 14.3815 34.8125 12.3701 33.5066 10.6769C32.2006 8.98363 30.466 7.67012 28.4821 6.87224C26.4982 6.07435 24.3371 5.82107 22.2225 6.13861C20.1078 6.45614 18.1165 7.33296 16.4544 8.67833C14.7924 10.0237 13.52 11.7888 12.7689 13.7909C12.0179 15.793 11.8155 17.9594 12.1827 20.066C12.5498 22.1725 13.4732 24.1428 14.8573 25.7727C16.2413 27.4027 18.0358 28.6333 20.055 29.337C20.5643 28.4081 21.3851 27.6886 22.3727 27.3053C23.3604 26.922 24.4516 26.8994 25.4543 27.2416C26.4569 27.5838 27.3067 28.2688 27.854 29.1759C28.4012 30.083 28.6109 31.1541 28.446 32.2007C28.2812 33.2472 27.7524 34.202 26.9527 34.897C26.1531 35.5919 25.1339 35.9825 24.0746 35.9998C23.0153 36.0172 21.9839 35.6603 21.1619 34.9919C20.3399 34.3235 19.7801 33.3866 19.581 32.346ZM17.202 34.671C14.2638 33.4715 11.695 31.5164 9.756 29.004C9.26315 29.7432 9.0001 30.6116 9 31.5V33C9 38.913 14.58 45 24 45C33.42 45 39 38.913 39 33V31.5C39 30.3065 38.5259 29.162 37.682 28.318C36.8381 27.4741 35.6935 27 34.5 27H30C30.6292 27.8403 31.075 28.8034 31.3085 29.8269C31.5421 30.8504 31.5581 31.9115 31.3557 32.9416C31.1533 33.9717 30.7368 34.9478 30.1333 35.8068C29.5298 36.6658 28.7527 37.3885 27.8523 37.9282C26.9519 38.468 25.9482 38.8126 24.9061 38.94C23.8641 39.0673 22.8069 38.9744 21.803 38.6674C20.7991 38.3604 19.8709 37.846 19.0783 37.1576C18.2857 36.4692 17.6465 35.6221 17.202 34.671ZM33 18C33 15.258 31.773 12.801 29.838 11.151C28.8932 10.3508 27.7935 9.75405 26.6076 9.39821C25.4217 9.04237 24.1751 8.93505 22.9458 9.08296C21.7165 9.23088 20.531 9.63084 19.4634 10.2578C18.3957 10.8848 17.4689 11.7254 16.7409 12.7269C16.013 13.7285 15.4995 14.8694 15.2326 16.0785C14.9657 17.2875 14.9511 18.5386 15.1898 19.7535C15.4285 20.9684 15.9153 22.1211 16.6198 23.1393C17.3242 24.1575 18.2312 25.0193 19.284 25.671C20.618 24.5896 22.2827 23.9986 24 23.997C25.7166 23.9969 27.3812 24.5857 28.716 25.665C30.0252 24.8596 31.1063 23.7322 31.8562 22.3904C32.6062 21.0486 32.9999 19.5371 33 18Z" fill="#4C6093"/>
</svg>
